<svg version="1.2" xmlns="http://www.w3.org/2000/svg" viewBox="0 0 220 220" width="220" height="220">
	<title>doctor-img-svg</title>
	<style>
		.s0 { fill: #0f7986 } 
		.s1 { fill: #b3b3b3 } 
		.s2 { fill: #f0ba7d } 
		.s3 { fill: #fed298 } 
		.s4 { fill: #21d0c3 } 
		.s5 { fill: #ffffff } 
		.s6 { fill: #eef3f7 } 
		.s7 { fill: #fefefe } 
		.s8 { fill: #ebecec } 
		.s9 { fill: #4d4d4d } 
		.s10 { fill: #076673 } 
		.s11 { fill: #666666 } 
		.s12 { fill: #15bdb2 } 
	</style>
	<path id="Layer" class="s0" d="m110 220c-60.8 0-110-49.2-110-110 0-60.8 49.2-110 110-110 60.8 0 110 49.2 110 110 0 60.8-49.2 110-110 110z"/>
	<path id="Layer" class="s1" d="m94.7 107.2q15.3 0 30.6 0l0.2 2.1-15 22.7-16.1-23z"/>
	<path id="Layer" class="s2" d="m94.9 101.5l-0.3 12.8-21.7 11.9v43.6h36.6 36.6v-43.6l-20.3-12.6-1.1-12.8-29.8 0.7z"/>
	<path id="Layer" class="s3" d="m84.8 64.2c0 0-1.2-2.9-4.5-1.5-3.4 1.4 0 14.9 1.4 16.9 1.2 1.8 3.3 0.6 4 0.6 1.1 8 1.2 13.5 4.4 17 3.1 3.2 10.1 9.7 13.8 12 2.5 0.5 4.3 0.9 6.1 1 1.8-0.1 3.6-0.5 6.2-1 3.6-2.3 10.6-8.8 13.7-12 3.2-3.5 3.3-9 4.4-17 0.7 0 2.8 1.2 4-0.6 1.4-2 4.8-15.5 1.4-16.9-3.3-1.4-4.5 1.5-4.5 1.5 0 0 3.3-10.7-2.6-21.2-4-7.2-13.2-10.9-22.6-11.1-9.4 0.2-18.6 3.9-22.6 11.1-5.9 10.5-2.6 21.2-2.6 21.2z"/>
	<path id="Layer" class="s4" d="m84 118.1c2.2 19.3 52 18.7 52 0l16.4 27.7-12.9 70.2c-9.4 2.6-19.3 4-29.5 4-8.4 0-16.5-1-24.2-2.6l-23.2-69.4z"/>
	<path id="Layer" class="s5" d="m88.7 116.6c-57.7 18.7-41.2 9.6-54.3 73.3 7.9 7.5 16.8 13.7 26.6 18.6l5.8-18.9c0.1-0.2 0.3-0.4 0.5-0.3 0.2 0 0.4 0.2 0.4 0.4l0.9 22.2c12.7 5.2 26.7 8.1 41.4 8.1v-45.9z"/>
	<path id="Layer" class="s6" d="m131.3 116.7c57.8 18.6 41.2 9.5 54.3 73.2-7.9 7.5-16.8 13.7-26.6 18.6l-5.8-18.9c-0.1-0.2-0.3-0.4-0.5-0.3-0.2 0-0.4 0.2-0.4 0.4l-0.9 22.2c-12.7 5.2-26.7 8.1-41.4 8.1v-45.9z"/>
	<path id="Layer" class="s7" d="m148.8 175.7c-4.2-0.7-7.1-4.7-6.4-9 0.8-4.3 4.8-7.2 9.1-6.5 4.3 0.8 7.2 4.9 6.5 9.1-0.7 4.3-4.9 7.2-9.2 6.4z"/>
	<path id="Layer" class="s4" d="m148.9 175.3c-4.1-0.7-6.7-4.5-6.1-8.5 0.7-4.1 4.6-6.8 8.6-6.1 4.1 0.7 6.8 4.6 6.1 8.5-0.7 4.1-4.6 6.8-8.6 6.1z"/>
	<path id="Layer" class="s8" d="m149.5 172c-2.3-0.3-3.8-2.4-3.3-4.7 0.3-2.2 2.4-3.7 4.7-3.4 2.2 0.4 3.7 2.6 3.4 4.8-0.5 2.2-2.6 3.8-4.8 3.3z"/>
	<path id="Layer" class="s7" d="m150 164.4l1.8 0.3 1-5.6-1.9-0.3z"/>
	<path id="Layer" class="s4" d="m89.5 177.3l3.3-0.6c1.5-0.3 2.7-1.1 3.5-2.3 0.7-1.1 1-2.5 0.8-4l-4-20.1c-1.5-7.6-7.5-11.3-14.3-12.2-2.5-0.4-5.2-0.2-7.9 0.2-2.6 0.6-5.2 1.5-7.5 2.9-5.8 3.3-9.8 9.1-8.3 16.7l3.9 20c0.4 1.4 1.2 2.7 2.3 3.4 1.2 0.8 2.6 1.1 4.1 0.9l3.3-0.7-0.2-1.5-3.5 0.8c-1 0.1-2.1-0.1-2.9-0.7-0.8-0.5-1.4-1.4-1.6-2.4l-4-20.1c-1.4-6.9 2.3-12.1 7.7-15.2 2.2-1.2 4.5-2.1 7-2.7 2.5-0.4 5.1-0.6 7.5-0.2 6.2 0.8 11.6 4.3 13 11.2l4 19.9c0.1 1.1 0 2.1-0.7 3-0.5 0.8-1.4 1.4-2.4 1.7l-3.4 0.6z"/>
	<path id="Layer" class="s9" d="m94.2 153.3l-0.7-3.1c-1.5-7.7-7.6-11.7-14.6-12.6-2.6-0.3-5.3-0.2-8.1 0.3-2.6 0.5-5.2 1.5-7.5 2.8-6.1 3.4-10.2 9.4-8.7 17.3l0.7 3 2.3-0.4-0.7-3.1c-1.3-6.7 2.2-11.8 7.5-14.8 2.1-1.1 4.5-2 6.9-2.5 2.4-0.5 5-0.5 7.4-0.3 6 0.8 11.2 4.2 12.6 10.8l0.5 3z"/>
	<g id="Layer">
		<path id="Layer" class="s10" d="m66.1 182.2l1.7-0.3c0.5 0.5 1.2 0.8 1.9 0.7 1.1-0.3 1.8-1.3 1.6-2.4-0.2-1-1.3-1.7-2.3-1.6-0.8 0.2-1.3 0.7-1.5 1.4l-1.9 0.3z"/>
		<path id="Layer" class="s10" d="m90.9 177.3l-1.8 0.4c-0.2 0.7-0.7 1.2-1.5 1.3-1.1 0.3-2.2-0.4-2.3-1.6-0.2-1 0.5-2.1 1.6-2.3 0.7-0.2 1.4 0.1 1.8 0.6l1.9-0.3z"/>
	</g>
	<path id="Layer" class="s11" d="m72 137.7l-0.7-3.4-1.4 0.3-1.3 0.2 0.7 3.5q0.7-0.2 1.5-0.4 0.6-0.1 1.2-0.2z"/>
	<g id="Layer">
		<path id="Layer" class="s0" d="m69 180.3c0.3 0 0.5-0.3 0.4-0.7 0-0.3-0.3-0.5-0.7-0.4-0.2 0.1-0.5 0.3-0.4 0.7 0.1 0.3 0.3 0.5 0.7 0.4z"/>
		<path id="Layer" class="s0" d="m86.9 176.8c0.3-0.1 0.5-0.4 0.5-0.7-0.1-0.4-0.5-0.5-0.7-0.5-0.4 0-0.5 0.4-0.5 0.8 0 0.2 0.4 0.5 0.7 0.4z"/>
	</g>
	<path id="Layer" class="s7" d="m149.2 172c-2.1-0.3-3.5-2.3-3.1-4.4 0.3-2.2 2.4-3.7 4.5-3.2 2.1 0.3 3.5 2.4 3.1 4.5-0.3 2.1-2.3 3.5-4.5 3.1z"/>
	<g id="Layer">
		<path id="Layer" class="s9" d="m88.7 115.5c-0.1 0-21.4 0.1-17.8 18.8l-2 0.4c-4-21.1 19.7-21.3 19.8-21.3z"/>
		<path id="Layer" class="s9" d="m131.3 113.5c3.5 0.1 10.3 1.1 15.4 7.4 5.1 6.2 8.7 17.5 6 38.3l-2-0.3c2.6-20-0.7-30.9-5.5-36.8-4.7-5.6-10.7-6.5-13.9-6.6z"/>
	</g>
	<path id="Layer" class="s7" d="m110 110.2c0 0-4.2-0.3-6.2-0.8-1.8-0.6-13.7-12.1-13.7-12.1l0.4-17 16.5-0.7c0 0 2-1.2 3-0.9 1-0.3 3 0.9 3 0.9l16.5 0.7 0.4 17c0 0-11.9 11.5-13.7 12.1-2 0.5-6.2 0.8-6.2 0.8z"/>
	<path id="Layer" class="s6" d="m110 78.7l1.3 4.6-0.7 3.3 1.5 7.9-1.6 7.5-0.5 8.2c0 0 4.2-0.3 6.2-0.8 1.8-0.6 13.7-12.1 13.7-12.1l-0.4-17-16.5-0.7c0 0-2-1.2-3-0.9z"/>
	<g id="Layer">
		<path id="Layer" class="s4" d="m83.7 60.8l8 20-1 0.3-8-19.9z"/>
		<path id="Layer" class="s4" d="m136.9 61.4l-7.5 20-1-0.3 7.6-19.9z"/>
		<path id="Layer" class="s4" d="m109.9 27.2c0 0-24.8 3.7-26.7 8.9-2.1 5.2-3.7 4-3.3 10.2 0.5 6.1 0.4 16.4 0.4 16.4 21.2-7.7 38.2-8 59.4 0 0 0-0.3-10.3 0.2-16.4 0.5-6.2-1.1-5-3.1-10.2-2.1-5.2-26.9-8.9-26.9-8.9z"/>
	</g>
	<path id="Layer" class="s12" d="m109.9 27.2h-0.1c0 0 24.5 6.2 24.8 8.1 0.2 1.9-1 3.7 1.9 4.7 2.8 0.9 2 5.4 2 5.4l-0.4 17 0.1 0.2 1.5 0.1c0 0-0.3-10.3 0.2-16.4 0.5-6.2-1.1-5-3.1-10.2-2.1-5.2-26.9-8.9-26.9-8.9z"/>
</svg>